# xmcd
#
# Track frame offsets: 
#        150
#        14267
#        31932
#        47517
#        62490
#        76127
#        91015
#        107030
#        124985
#        139665
#        157130
#        168715
#
# Disc length: 2432 seconds
#
# Revision: 4
# Processed by: cddbd v1.5.2PL0 Copyright (c) Steve Scherf et al.
# Submitted via: ExactAudioCopy v0.99pb4
#
DISCID=92097e0c
DTITLE=Terri Clark - Terri Clark
DYEAR=1995
DGENRE=Country
TTITLE0=Better Things to Do
TTITLE1=If I Were You
TTITLE2=Catch 22
TTITLE3=Is Fort Worth Worth It
TTITLE4=When Boy Meets Girl
TTITLE5=Tyin' a Heart to a Tumbleweed
TTITLE6=When We Had It Bad
TTITLE7=Suddenly Single
TTITLE8=Flowers After the Fact
TTITLE9=The Inside Story
TTITLE10=Was There a Girl on Your Boys' Night Out
TTITLE11=Something You Should've Said
EXTD=YEAR: 1995 ID3G: 2
EXTT0=
EXTT1=
EXTT2=
EXTT3=
EXTT4=
EXTT5=
EXTT6=
EXTT7=
EXTT8=
EXTT9=
EXTT10=
EXTT11=
PLAYORDER=
